<svg xmlns="http://www.w3.org/2000/svg" xmlns:xlink="http://www.w3.org/1999/xlink" width="690" zoomAndPan="magnify" viewBox="0 0 517.5 89.999999" height="120" preserveAspectRatio="xMidYMid meet" version="1.0"><defs><g/><clipPath id="a1a2822e21"><path d="M 78 44 L 82.421875 44 L 82.421875 66 L 78 66 Z M 78 44 " clip-rule="nonzero"/></clipPath><clipPath id="30e9fd970e"><path d="M 32 3.261719 L 77 3.261719 L 77 24 L 32 24 Z M 32 3.261719 " clip-rule="nonzero"/></clipPath><clipPath id="794c026c20"><path d="M 7 43 L 67 43 L 67 85.679688 L 7 85.679688 Z M 7 43 " clip-rule="nonzero"/></clipPath><clipPath id="bb72cda470"><path d="M 37 78 L 44 78 L 44 85.679688 L 37 85.679688 Z M 37 78 " clip-rule="nonzero"/></clipPath></defs><g fill="#275874" fill-opacity="1"><g transform="translate(88.670132, 68.850486)"><g><path d="M 25.3125 -39.703125 L 25.3125 0 L 15.453125 0 L 15.453125 -39.703125 L 0.921875 -39.703125 L 0.921875 -47.921875 L 39.265625 -47.921875 L 39.265625 -39.703125 Z M 25.3125 -39.703125 "/></g></g></g><g fill="#275874" fill-opacity="1"><g transform="translate(128.791301, 68.850486)"><g><path d="M 4.109375 -35.515625 L 13.328125 -35.515625 L 13.328125 -28.5 C 14.316406 -30.90625 15.6875 -32.769531 17.4375 -34.09375 C 19.1875 -35.414062 21.101562 -36.078125 23.1875 -36.078125 C 23.601562 -36.078125 23.976562 -36.054688 24.3125 -36.015625 L 24.3125 -26.65625 C 23.175781 -26.84375 22.207031 -26.9375 21.40625 -26.9375 C 16.019531 -26.9375 13.328125 -24.242188 13.328125 -18.859375 L 13.328125 0 L 4.109375 0 Z M 4.109375 -35.515625 "/></g></g></g><g fill="#275874" fill-opacity="1"><g transform="translate(154.310066, 68.850486)"><g><path d="M 12.625 1.484375 C 9.40625 1.484375 6.800781 0.503906 4.8125 -1.453125 C 2.832031 -3.410156 1.84375 -5.972656 1.84375 -9.140625 C 1.84375 -15.429688 5.316406 -19.144531 12.265625 -20.28125 L 15.953125 -20.984375 C 16.085938 -20.984375 16.425781 -21.019531 16.96875 -21.09375 C 17.519531 -21.164062 17.898438 -21.222656 18.109375 -21.265625 C 18.328125 -21.316406 18.679688 -21.390625 19.171875 -21.484375 C 19.671875 -21.578125 20.035156 -21.671875 20.265625 -21.765625 C 20.503906 -21.859375 20.820312 -21.972656 21.21875 -22.109375 C 21.625 -22.253906 21.921875 -22.410156 22.109375 -22.578125 C 22.304688 -22.742188 22.507812 -22.957031 22.71875 -23.21875 C 22.9375 -23.476562 23.09375 -23.757812 23.1875 -24.0625 C 23.28125 -24.375 23.328125 -24.71875 23.328125 -25.09375 C 23.328125 -27.457031 21.550781 -28.640625 18 -28.640625 C 15.738281 -28.640625 14.144531 -28.296875 13.21875 -27.609375 C 12.300781 -26.921875 11.722656 -25.65625 11.484375 -23.8125 L 2.625 -23.8125 C 3.1875 -31.988281 8.242188 -36.078125 17.796875 -36.078125 C 27.484375 -36.078125 32.328125 -32.441406 32.328125 -25.171875 L 32.328125 -5.453125 C 32.328125 -3.847656 33.035156 -2.410156 34.453125 -1.140625 L 34.453125 0 L 24.453125 0 C 23.742188 -0.894531 23.390625 -2.078125 23.390625 -3.546875 C 20.179688 -0.191406 16.59375 1.484375 12.625 1.484375 Z M 23.328125 -14.25 L 23.328125 -16.734375 C 22.421875 -16.304688 21.117188 -15.953125 19.421875 -15.671875 L 16.3125 -15.03125 C 14.363281 -14.65625 13 -14.097656 12.21875 -13.359375 C 11.445312 -12.628906 11.0625 -11.578125 11.0625 -10.203125 C 11.0625 -8.878906 11.507812 -7.828125 12.40625 -7.046875 C 13.300781 -6.273438 14.503906 -5.890625 16.015625 -5.890625 C 18.335938 -5.890625 20.132812 -6.617188 21.40625 -8.078125 C 22.6875 -9.546875 23.328125 -11.601562 23.328125 -14.25 Z M 23.328125 -14.25 "/></g></g></g><g fill="#275874" fill-opacity="1"><g transform="translate(190.816072, 68.850486)"><g><path d="M 16.796875 1.484375 C 12.398438 1.484375 8.816406 -0.304688 6.046875 -3.890625 C 3.285156 -7.484375 1.90625 -11.925781 1.90625 -17.21875 C 1.90625 -22.5625 3.332031 -27.039062 6.1875 -30.65625 C 9.050781 -34.269531 12.585938 -36.078125 16.796875 -36.078125 C 21.097656 -36.078125 24.359375 -34.351562 26.578125 -30.90625 L 26.578125 -47.921875 L 35.796875 -47.921875 L 35.796875 0 L 26.578125 0 L 26.578125 -3.609375 C 24.359375 -0.210938 21.097656 1.484375 16.796875 1.484375 Z M 24.453125 -25.265625 C 23.035156 -27.328125 21.171875 -28.359375 18.859375 -28.359375 C 16.546875 -28.359375 14.675781 -27.328125 13.25 -25.265625 C 11.832031 -23.210938 11.125 -20.53125 11.125 -17.21875 C 11.125 -13.957031 11.832031 -11.300781 13.25 -9.25 C 14.675781 -7.195312 16.546875 -6.171875 18.859375 -6.171875 C 21.171875 -6.171875 23.035156 -7.1875 24.453125 -9.21875 C 25.867188 -11.25 26.578125 -13.867188 26.578125 -17.078125 C 26.578125 -20.484375 25.867188 -23.210938 24.453125 -25.265625 Z M 24.453125 -25.265625 "/></g></g></g><g fill="#275874" fill-opacity="1"><g transform="translate(230.937241, 68.850486)"><g><path d="M 17.859375 -36.078125 C 19.796875 -36.078125 21.675781 -35.769531 23.5 -35.15625 C 25.320312 -34.539062 27.09375 -33.546875 28.8125 -32.171875 C 30.539062 -30.804688 31.925781 -28.773438 32.96875 -26.078125 C 34.007812 -23.390625 34.53125 -20.179688 34.53125 -16.453125 C 34.53125 -15.929688 34.503906 -15.410156 34.453125 -14.890625 L 10.640625 -14.890625 C 10.773438 -11.953125 11.335938 -9.65625 12.328125 -8 C 13.328125 -6.351562 15.21875 -5.53125 18 -5.53125 C 21.5 -5.53125 23.84375 -7.019531 25.03125 -10 L 34.09375 -10 C 33.050781 -6.5 31.039062 -3.707031 28.0625 -1.625 C 25.09375 0.445312 21.625 1.484375 17.65625 1.484375 C 12.644531 1.484375 8.6875 -0.144531 5.78125 -3.40625 C 2.875 -6.664062 1.421875 -11.128906 1.421875 -16.796875 C 1.421875 -22.753906 2.882812 -27.457031 5.8125 -30.90625 C 8.738281 -34.351562 12.753906 -36.078125 17.859375 -36.078125 Z M 24.875 -20.984375 C 24.5 -26.367188 22.113281 -29.0625 17.71875 -29.0625 C 13.65625 -29.0625 11.34375 -26.367188 10.78125 -20.984375 Z M 24.875 -20.984375 "/></g></g></g><g fill="#4b1919" fill-opacity="1"><g transform="translate(267.445639, 68.850486)"><g><path d="M 39.90625 -33.3125 L 30.703125 -33.3125 C 30.316406 -38.320312 26.957031 -40.828125 20.625 -40.828125 C 18.125 -40.828125 16.113281 -40.285156 14.59375 -39.203125 C 13.082031 -38.117188 12.328125 -36.675781 12.328125 -34.875 C 12.328125 -33.125 12.953125 -31.820312 14.203125 -30.96875 C 15.460938 -30.125 17.863281 -29.347656 21.40625 -28.640625 L 28.921875 -27.21875 C 33.367188 -26.375 36.59375 -24.898438 38.59375 -22.796875 C 40.601562 -20.691406 41.609375 -17.75 41.609375 -13.96875 C 41.609375 -9.09375 39.882812 -5.296875 36.4375 -2.578125 C 32.988281 0.128906 28.164062 1.484375 21.96875 1.484375 C 15.832031 1.484375 11.0625 0.140625 7.65625 -2.546875 C 4.25 -5.242188 2.40625 -9.164062 2.125 -14.3125 L 11.703125 -14.3125 C 12.078125 -9.019531 15.664062 -6.375 22.46875 -6.375 C 25.445312 -6.375 27.796875 -6.941406 29.515625 -8.078125 C 31.242188 -9.210938 32.109375 -10.796875 32.109375 -12.828125 C 32.109375 -14.722656 31.4375 -16.1875 30.09375 -17.21875 C 28.75 -18.257812 26.421875 -19.113281 23.109375 -19.78125 L 16.453125 -21.125 C 11.578125 -22.019531 8.113281 -23.457031 6.0625 -25.4375 C 4.007812 -27.425781 2.984375 -30.265625 2.984375 -33.953125 C 2.984375 -38.628906 4.566406 -42.253906 7.734375 -44.828125 C 10.898438 -47.410156 15.363281 -48.703125 21.125 -48.703125 C 22.78125 -48.703125 24.382812 -48.59375 25.9375 -48.375 C 27.5 -48.164062 29.15625 -47.71875 30.90625 -47.03125 C 32.65625 -46.351562 34.164062 -45.46875 35.4375 -44.375 C 36.71875 -43.289062 37.78125 -41.800781 38.625 -39.90625 C 39.476562 -38.019531 39.90625 -35.820312 39.90625 -33.3125 Z M 39.90625 -33.3125 "/></g></g></g><g fill="#4b1919" fill-opacity="1"><g transform="translate(311.252853, 68.850486)"><g><path d="M 22.890625 -36.078125 C 27.335938 -36.078125 30.921875 -34.269531 33.640625 -30.65625 C 36.359375 -27.039062 37.71875 -22.5625 37.71875 -17.21875 C 37.71875 -11.832031 36.3125 -7.351562 33.5 -3.78125 C 30.6875 -0.21875 27.148438 1.5625 22.890625 1.5625 C 18.503906 1.5625 15.222656 -0.351562 13.046875 -4.1875 L 13.046875 14.3125 L 3.828125 14.3125 L 3.828125 -35.515625 L 13.046875 -35.515625 L 13.046875 -30.203125 C 15.222656 -34.117188 18.503906 -36.078125 22.890625 -36.078125 Z M 26.375 -25.265625 C 24.957031 -27.328125 23.085938 -28.359375 20.765625 -28.359375 C 18.453125 -28.359375 16.585938 -27.328125 15.171875 -25.265625 C 13.753906 -23.210938 13.046875 -20.53125 13.046875 -17.21875 C 13.046875 -13.914062 13.753906 -11.234375 15.171875 -9.171875 C 16.585938 -7.117188 18.453125 -6.09375 20.765625 -6.09375 C 23.035156 -6.09375 24.890625 -7.117188 26.328125 -9.171875 C 27.773438 -11.234375 28.5 -13.867188 28.5 -17.078125 C 28.5 -20.484375 27.789062 -23.210938 26.375 -25.265625 Z M 26.375 -25.265625 "/></g></g></g><g fill="#4b1919" fill-opacity="1"><g transform="translate(351.374023, 68.850486)"><g><path d="M 26.375 -21.6875 C 26.375 -26.082031 24.484375 -28.28125 20.703125 -28.28125 C 18.617188 -28.28125 16.914062 -27.617188 15.59375 -26.296875 C 14.269531 -24.972656 13.609375 -23.296875 13.609375 -21.265625 L 13.609375 0 L 4.390625 0 L 4.390625 -47.921875 L 13.609375 -47.921875 L 13.609375 -30.34375 C 16.117188 -34.164062 19.570312 -36.078125 23.96875 -36.078125 C 27.082031 -36.078125 29.796875 -35.144531 32.109375 -33.28125 C 34.429688 -31.414062 35.59375 -28.257812 35.59375 -23.8125 L 35.59375 0 L 26.375 0 Z M 26.375 -21.6875 "/></g></g></g><g fill="#4b1919" fill-opacity="1"><g transform="translate(391.495192, 68.850486)"><g><path d="M 17.859375 -36.078125 C 19.796875 -36.078125 21.675781 -35.769531 23.5 -35.15625 C 25.320312 -34.539062 27.09375 -33.546875 28.8125 -32.171875 C 30.539062 -30.804688 31.925781 -28.773438 32.96875 -26.078125 C 34.007812 -23.390625 34.53125 -20.179688 34.53125 -16.453125 C 34.53125 -15.929688 34.503906 -15.410156 34.453125 -14.890625 L 10.640625 -14.890625 C 10.773438 -11.953125 11.335938 -9.65625 12.328125 -8 C 13.328125 -6.351562 15.21875 -5.53125 18 -5.53125 C 21.5 -5.53125 23.84375 -7.019531 25.03125 -10 L 34.09375 -10 C 33.050781 -6.5 31.039062 -3.707031 28.0625 -1.625 C 25.09375 0.445312 21.625 1.484375 17.65625 1.484375 C 12.644531 1.484375 8.6875 -0.144531 5.78125 -3.40625 C 2.875 -6.664062 1.421875 -11.128906 1.421875 -16.796875 C 1.421875 -22.753906 2.882812 -27.457031 5.8125 -30.90625 C 8.738281 -34.351562 12.753906 -36.078125 17.859375 -36.078125 Z M 24.875 -20.984375 C 24.5 -26.367188 22.113281 -29.0625 17.71875 -29.0625 C 13.65625 -29.0625 11.34375 -26.367188 10.78125 -20.984375 Z M 24.875 -20.984375 "/></g></g></g><g fill="#4b1919" fill-opacity="1"><g transform="translate(428.001198, 68.850486)"><g><path d="M 4.109375 -35.515625 L 13.328125 -35.515625 L 13.328125 -28.5 C 14.316406 -30.90625 15.6875 -32.769531 17.4375 -34.09375 C 19.1875 -35.414062 21.101562 -36.078125 23.1875 -36.078125 C 23.601562 -36.078125 23.976562 -36.054688 24.3125 -36.015625 L 24.3125 -26.65625 C 23.175781 -26.84375 22.207031 -26.9375 21.40625 -26.9375 C 16.019531 -26.9375 13.328125 -24.242188 13.328125 -18.859375 L 13.328125 0 L 4.109375 0 Z M 4.109375 -35.515625 "/></g></g></g><g fill="#4b1919" fill-opacity="1"><g transform="translate(453.519963, 68.850486)"><g><path d="M 17.859375 -36.078125 C 19.796875 -36.078125 21.675781 -35.769531 23.5 -35.15625 C 25.320312 -34.539062 27.09375 -33.546875 28.8125 -32.171875 C 30.539062 -30.804688 31.925781 -28.773438 32.96875 -26.078125 C 34.007812 -23.390625 34.53125 -20.179688 34.53125 -16.453125 C 34.53125 -15.929688 34.503906 -15.410156 34.453125 -14.890625 L 10.640625 -14.890625 C 10.773438 -11.953125 11.335938 -9.65625 12.328125 -8 C 13.328125 -6.351562 15.21875 -5.53125 18 -5.53125 C 21.5 -5.53125 23.84375 -7.019531 25.03125 -10 L 34.09375 -10 C 33.050781 -6.5 31.039062 -3.707031 28.0625 -1.625 C 25.09375 0.445312 21.625 1.484375 17.65625 1.484375 C 12.644531 1.484375 8.6875 -0.144531 5.78125 -3.40625 C 2.875 -6.664062 1.421875 -11.128906 1.421875 -16.796875 C 1.421875 -22.753906 2.882812 -27.457031 5.8125 -30.90625 C 8.738281 -34.351562 12.753906 -36.078125 17.859375 -36.078125 Z M 24.875 -20.984375 C 24.5 -26.367188 22.113281 -29.0625 17.71875 -29.0625 C 13.65625 -29.0625 11.34375 -26.367188 10.78125 -20.984375 Z M 24.875 -20.984375 "/></g></g></g><g fill="#000000" fill-opacity="1"><g transform="translate(490.035172, 68.850486)"><g/></g></g><path fill="#38b6ff" d="M 0.148438 65.152344 L 4.558594 65.152344 L 4.558594 46.039062 L 0.148438 46.039062 L 0.148438 65.152344 " fill-opacity="1" fill-rule="nonzero"/><path fill="#38b6ff" d="M 56.113281 47.035156 L 46.453125 42.179688 C 44.53125 41.1875 41.945312 41.636719 40.417969 43.230469 L 31.570312 52.550781 C 31.121094 53.058594 31.019531 53.648438 31.019531 54.050781 C 31.019531 54.769531 31.351562 55.441406 31.9375 55.882812 C 32.832031 56.550781 34.113281 56.457031 34.902344 55.664062 L 42.382812 48.710938 C 43.386719 47.769531 44.933594 47.660156 46.058594 48.453125 L 46.066406 48.453125 C 46.066406 48.457031 46.070312 48.457031 46.070312 48.457031 L 67.109375 63.105469 C 67.230469 63.191406 67.316406 63.300781 67.425781 63.398438 C 69.234375 63.007812 72.042969 62.503906 75.121094 62.285156 L 75.121094 47.511719 L 58.09375 47.511719 C 57.398438 47.511719 56.710938 47.347656 56.113281 47.035156 " fill-opacity="1" fill-rule="nonzero"/><g clip-path="url(#a1a2822e21)"><path fill="#38b6ff" d="M 78.0625 65.152344 L 82.472656 65.152344 L 82.472656 44.570312 L 78.0625 44.570312 L 78.0625 65.152344 " fill-opacity="1" fill-rule="nonzero"/></g><g clip-path="url(#30e9fd970e)"><path fill="#38b6ff" d="M 66.140625 3.613281 C 65.820312 3.320312 65.484375 3.402344 65.320312 3.476562 C 65.171875 3.539062 64.832031 3.742188 64.832031 4.246094 L 64.832031 6.347656 C 64.832031 7.15625 64.171875 7.816406 63.359375 7.816406 L 32.488281 7.816406 L 32.488281 13.691406 L 50.128906 13.691406 C 51.75 13.691406 53.070312 15.011719 53.070312 16.632812 L 53.070312 19.578125 L 63.359375 19.578125 C 64.171875 19.578125 64.832031 20.238281 64.832031 21.046875 L 64.832031 23.148438 C 64.832031 23.648438 65.171875 23.851562 65.320312 23.917969 C 65.484375 23.988281 65.820312 24.074219 66.144531 23.769531 L 76.328125 14.324219 C 76.558594 14.113281 76.597656 13.835938 76.597656 13.699219 C 76.597656 13.554688 76.558594 13.285156 76.328125 13.070312 L 66.140625 3.613281 " fill-opacity="1" fill-rule="nonzero"/></g><path fill="#38b6ff" d="M 17.304688 32.738281 C 17.457031 32.675781 17.792969 32.476562 17.792969 31.972656 L 17.792969 29.867188 C 17.792969 29.058594 18.449219 28.398438 19.265625 28.398438 L 50.128906 28.398438 L 50.128906 16.632812 L 19.265625 16.632812 C 18.449219 16.632812 17.792969 15.976562 17.792969 15.164062 L 17.792969 13.058594 C 17.792969 12.5625 17.457031 12.359375 17.304688 12.289062 C 17.230469 12.261719 17.117188 12.222656 16.988281 12.222656 C 16.835938 12.222656 16.65625 12.273438 16.480469 12.441406 L 6.296875 21.886719 C 6.0625 22.105469 6.027344 22.375 6.027344 22.519531 C 6.027344 22.65625 6.0625 22.933594 6.292969 23.144531 C 6.292969 23.144531 6.292969 23.144531 6.296875 23.144531 L 16.484375 32.601562 C 16.800781 32.894531 17.132812 32.816406 17.304688 32.738281 " fill-opacity="1" fill-rule="nonzero"/><g clip-path="url(#794c026c20)"><path fill="#38b6ff" d="M 65.40625 65.496094 L 44.386719 50.863281 L 36.945312 57.773438 C 35.976562 58.761719 34.648438 59.265625 33.308594 59.265625 C 32.214844 59.265625 31.105469 58.925781 30.167969 58.230469 C 28.835938 57.214844 28.078125 55.699219 28.078125 54.050781 C 28.078125 52.753906 28.554688 51.511719 29.410156 50.558594 L 36.335938 43.261719 C 35.136719 43.15625 33.855469 43.101562 32.488281 43.101562 C 27.601562 43.101562 23.375 45.964844 21.292969 47.675781 C 20.25 48.519531 18.941406 48.980469 17.597656 48.980469 L 7.496094 48.980469 L 7.496094 62.457031 C 10.105469 62.984375 14.96875 64.265625 18.558594 66.886719 L 19.488281 65.339844 C 20.207031 64.164062 21.332031 63.335938 22.667969 63.007812 C 24 62.6875 25.386719 62.894531 26.5625 63.613281 C 27.492188 64.175781 28.195312 65 28.613281 65.984375 C 28.957031 65.804688 29.324219 65.65625 29.714844 65.566406 C 31.054688 65.230469 32.4375 65.449219 33.609375 66.160156 C 35.183594 67.121094 36.050781 68.792969 36.066406 70.515625 C 37.136719 70.429688 38.195312 70.664062 39.128906 71.226562 C 40.613281 72.128906 41.46875 73.667969 41.578125 75.28125 C 42.433594 75.246094 43.28125 75.464844 44.019531 75.917969 C 46.082031 77.171875 46.753906 79.851562 45.53125 81.925781 L 50.0625 85.238281 C 50.710938 85.710938 51.640625 85.554688 52.101562 84.917969 C 52.578125 84.261719 52.445312 83.34375 51.800781 82.871094 C 51.777344 82.855469 51.773438 82.839844 51.753906 82.820312 C 51.734375 82.804688 51.703125 82.796875 51.6875 82.773438 L 49.269531 81.046875 C 48.613281 80.570312 48.464844 79.652344 48.9375 78.992188 C 49.414062 78.332031 50.332031 78.1875 50.992188 78.65625 L 54.105469 80.910156 C 55.082031 81.644531 56.480469 81.414062 57.195312 80.4375 C 57.542969 79.960938 57.6875 79.375 57.59375 78.796875 C 57.507812 78.226562 57.207031 77.722656 56.738281 77.382812 L 51.703125 73.683594 C 51.042969 73.207031 50.90625 72.289062 51.382812 71.632812 C 51.863281 70.980469 52.785156 70.835938 53.4375 71.320312 L 59.640625 75.855469 C 60.117188 76.207031 60.703125 76.34375 61.28125 76.25 C 61.863281 76.160156 62.375 75.855469 62.71875 75.382812 C 63.003906 74.992188 63.15625 74.539062 63.15625 74.074219 C 63.15625 73.375 62.816406 72.707031 62.242188 72.289062 L 56.613281 68.175781 C 55.957031 67.695312 55.816406 66.777344 56.292969 66.121094 C 56.773438 65.46875 57.691406 65.324219 58.347656 65.800781 L 62.671875 68.964844 L 62.683594 68.96875 C 63.5 69.566406 64.574219 69.636719 65.296875 69.140625 C 65.933594 68.707031 66.300781 68.027344 66.300781 67.28125 C 66.300781 66.570312 65.972656 65.914062 65.40625 65.496094 " fill-opacity="1" fill-rule="nonzero"/></g><path fill="#38b6ff" d="M 26.035156 67.488281 C 25.890625 66.929688 25.539062 66.425781 25.035156 66.121094 C 24.011719 65.5 22.625 65.847656 22.003906 66.863281 C 22.003906 66.863281 19.242188 71.4375 19.242188 71.445312 C 18.621094 72.46875 18.964844 73.855469 19.988281 74.472656 C 21.015625 75.097656 22.351562 74.769531 23.007812 73.726562 L 25.816406 69.085938 C 26.113281 68.597656 26.171875 68.015625 26.035156 67.488281 " fill-opacity="1" fill-rule="nonzero"/><path fill="#38b6ff" d="M 37.605469 73.742188 C 36.578125 73.117188 35.199219 73.460938 34.578125 74.484375 C 34.578125 74.484375 31.804688 79.054688 31.804688 79.058594 C 31.1875 80.082031 31.519531 81.464844 32.546875 82.085938 C 33.570312 82.699219 34.957031 82.363281 35.574219 81.351562 L 38.347656 76.773438 C 38.972656 75.734375 38.644531 74.375 37.605469 73.742188 " fill-opacity="1" fill-rule="nonzero"/><g clip-path="url(#bb72cda470)"><path fill="#38b6ff" d="M 42.5 78.433594 C 41.820312 78.027344 40.882812 78.253906 40.476562 78.925781 C 40.476562 78.925781 37.710938 83.5 37.710938 83.5 C 37.289062 84.195312 37.515625 85.101562 38.203125 85.519531 C 38.902344 85.9375 39.804688 85.714844 40.222656 85.027344 L 42.992188 80.449219 C 43.410156 79.761719 43.191406 78.851562 42.5 78.433594 " fill-opacity="1" fill-rule="nonzero"/></g><path fill="#38b6ff" d="M 32.082031 68.675781 C 31.058594 68.050781 29.675781 68.390625 29.054688 69.417969 C 29.054688 69.417969 25.527344 75.257812 25.5 75.285156 C 25.214844 75.78125 25.128906 76.359375 25.265625 76.910156 C 25.402344 77.480469 25.765625 77.972656 26.265625 78.273438 C 27.28125 78.886719 28.683594 78.546875 29.289062 77.53125 L 32.820312 71.703125 C 33.453125 70.664062 33.121094 69.308594 32.082031 68.675781 " fill-opacity="1" fill-rule="nonzero"/></svg>